<svg xmlns="http://www.w3.org/2000/svg" viewBox="0 0 250 250"><defs><style>.a,.c{fill:#fff;}.b{fill:#004994;}.c,.d{fill-rule:evenodd;}.d{fill:#009fe3;}</style></defs><title>Azul Seguros</title><rect class="a" width="250" height="250"/><rect class="b" x="4.8" y="4.7" width="240.6" height="240.6"/><path class="c" d="M43.9,82.9H71.6l32.6,84.7H79.5l-6.3-18.1H41.4l-6.7,18.1H11.8L43.9,82.9Zm13.9,17.5h-.2L46.7,133.5H67.9Z"/><polygon class="c" points="108.3 154.1 130.7 131 108.7 131 108.7 118.6 150 118.6 150 132.1 127.7 155.2 150.4 155.2 150.4 167.6 108.3 167.6 108.3 154.1"/><path class="c" d="M208,167.6H192.6v-9h-.2c-3.4,7.1-10.2,10.2-17.9,10.2-13.4,0-18.7-9.4-18.7-19.6V118.6h16.9v23.7c0,9.2,3.2,12.3,7.8,12.3,7,0,10.5-4.8,10.5-15.3V118.6h17Z"/><rect class="a" x="215.8" y="97" width="16.9" height="70.6"/><path class="c" d="M47.8,207.1a12.86,12.86,0,0,0-5.4-1.2c-2.3,0-5,.8-5,3.8,0,5.5,12.3,4.2,12.3,13.6,0,6.1-4.7,8.5-10.4,8.5a20,20,0,0,1-5.9-1.2l.4-3.8a16.51,16.51,0,0,0,5.9,1.4c2.3,0,5.6-1.3,5.6-4.7,0-6.4-12.3-4.6-12.3-13.5,0-5.1,4-7.8,9.2-7.8a19,19,0,0,1,6.1,1Z"/><polygon class="c" points="56.8 202.8 72.8 202.8 72.8 206.4 60.9 206.4 60.9 214.8 71.8 214.8 71.8 218.4 60.9 218.4 60.9 227.8 72.8 227.8 72.8 231.4 56.8 231.4 56.8 202.8"/><path class="c" d="M102.4,207.9c-2-1.3-4.2-2-7.9-2-6.6,0-11,4.8-11,11.2,0,6.7,4.8,11.2,10.8,11.2a16.74,16.74,0,0,0,4.6-.5v-8.7h-6v-3.4H103v14.9a27.09,27.09,0,0,1-8.7,1.3c-9,0-15.1-5.8-15.1-14.9,0-8.8,6.4-14.7,15.1-14.7a22,22,0,0,1,8.4,1.4Z"/><path class="c" d="M133.8,219.6c0,8-4.1,12.3-11.1,12.3s-11.1-4.3-11.1-12.3V202.9h4.1V219c0,5.5,1.7,9.2,7,9.2s7-3.8,7-9.2V202.8h4.1v16.8Z"/><path class="c" d="M142.1,202.8h7c5.6,0,11.1.9,11.1,7.7,0,3.5-2.6,5.9-5.9,6.5v.1c1.3.5,1.9,1.1,2.8,2.9l5.4,11.4h-4.7l-4.4-9.9c-1.3-2.8-2.6-2.8-4.8-2.8h-2.5v12.7H142V202.8Zm4.1,12.3h3.5c3.9,0,6.2-1.7,6.2-4.5,0-2.6-2-4.2-5.7-4.2h-3.9v8.7Z"/><path class="c" d="M181,202.3c8.7,0,13.8,6.3,13.8,14.8,0,8.7-5,14.8-13.8,14.8s-13.8-6.1-13.8-14.8c0-8.5,5.1-14.8,13.8-14.8Zm0,26c6.6,0,9.4-5.5,9.4-11.2s-3.1-11.2-9.4-11.2-9.4,5.4-9.4,11.2S174.4,228.3,181,228.3Z"/><path class="c" d="M214.8,207.1a12.86,12.86,0,0,0-5.4-1.2c-2.3,0-5,.8-5,3.8,0,5.5,12.3,4.2,12.3,13.6,0,6.1-4.7,8.5-10.4,8.5a20,20,0,0,1-5.9-1.2l.4-3.8a16.51,16.51,0,0,0,5.9,1.4c2.3,0,5.6-1.3,5.6-4.7,0-6.4-12.3-4.6-12.3-13.5,0-5.1,4-7.8,9.2-7.8a19,19,0,0,1,6.1,1Z"/><path class="d" d="M4.8,195.7v-21H245.4C245.3,174.7,101.6,178.9,4.8,195.7Z"/></svg>