<svg xmlns="http://www.w3.org/2000/svg" viewBox="0 0 189.19 58.31"><defs><style>.a{fill:#231f20;}.a,.b,.c{fill-rule:evenodd;}.b{fill:#00b1e3;}.c{fill:#fff;}</style></defs><title>Porto Seguro</title><path class="a" d="M1,2.93l12.86.12A7.12,7.12,0,0,1,21,10.19c.21,4.37-2.1,9.14-9.31,9.38H7.41L7.35,28.2H1.09L1,2.93ZM7.41,7.78l0,7c1,.08,3.76,0,4.59-.05,4.19,0,4.28-6.86.17-7Z"/><path class="a" d="M35.51,2.75A13.64,13.64,0,0,1,49.36,16.16a13.63,13.63,0,0,1-13.85,13.4,13.64,13.64,0,0,1-13.86-13.4A13.65,13.65,0,0,1,35.51,2.75Zm0,5c4.83,0,7.38,3.75,7.38,8.38s-2.44,8.25-7.38,8.37-7.45-3.75-7.45-8.37,2.62-8.38,7.45-8.38Z"/><path class="a" d="M107.08,2.16a13.65,13.65,0,0,1,13.86,13.41,13.87,13.87,0,0,1-27.72,0A13.65,13.65,0,0,1,107.08,2.16Zm0,5c4.83,0,7.39,3.75,7.39,8.38s-2.44,8.25-7.39,8.37-7.44-3.75-7.44-8.37,2.61-8.38,7.44-8.38Z"/><path class="a" d="M51,2.87,63.84,3A7.14,7.14,0,0,1,71,10.15c.15,3.08-1,6-4.13,7.63l0,0,8.33,10.46L67,28.2l-6.75-9.26L57.4,19l-.06,9.24H51.08L51,2.87Zm6.45,4.8v7.06c1,.08,3.76,0,4.59,0,4.19,0,4.31-7,.2-7.1Z"/><polygon class="a" points="72.12 2.9 94.28 2.9 94.28 8.35 86.42 8.35 86.42 28.23 80.03 28.23 80.03 8.35 72.12 8.35 72.12 2.9 72.12 2.9"/><path class="a" d="M108,33.51A11.3,11.3,0,1,1,96.33,44.8,11.49,11.49,0,0,1,108,33.51Zm0,4.24c4.06,0,6.22,3.15,6.22,7s-2.06,7-6.22,7.05-6.28-3.16-6.28-7.05,2.21-7,6.28-7Z"/><path class="a" d="M77.69,33.65l11.29.1A6.27,6.27,0,0,1,95.29,40a6.64,6.64,0,0,1-3.64,6.7l0,0L99,56l-7.27-.05L85.8,47.76l-2.48,0,0,8.12h-5.5l-.08-22.25Zm5.66,4.21v6.2c.91.07,3.3,0,4,0,3.68,0,3.79-6.14.17-6.24Z"/><path class="a" d="M14.36,39.62l2.07-4.29s-5.08-2.88-10.1-1.51-6.95,8-2.7,10.92S11.29,47,11,49.59c-.39,3.66-6.62,1.27-9.4,0L0,54.06a17.56,17.56,0,0,0,7.18,2c4.64.45,9.11-2.1,9.28-6.63.27-7.61-11.55-6-9.41-10.4.93-1.93,4.53-.8,7.31.55Z"/><polygon class="a" points="32.83 34.17 32.83 38.85 24.14 38.85 24.14 42.25 32.06 42.25 32.06 46.92 24.14 46.92 24.14 50.73 33.48 50.73 33.48 55.41 18.59 55.42 18.59 34.17 32.83 34.17 32.83 34.17"/><path class="a" d="M51.68,39.48c-7.29-3-11.93.91-12.39,5-.43,3.87,2.88,7.9,9.82,6.48l0-7.48h5.43l0,10.09c-9,5.62-20.75.6-20.46-8.6.4-12.45,14.22-12.86,19.66-9.72l-2,4.2Z"/><path class="a" d="M61.66,33.71l-5.43-.06V46.79C56.12,53,61.14,56,66.18,56s10.13-3.05,10-9.16V33.65l-5.43.06,0,12.81c.08,3.14-1.56,4.59-4.53,4.59s-4.6-1.45-4.52-4.59l0-12.81Z"/><path class="b" d="M131.91,0h55a2.27,2.27,0,0,1,2.27,2.27V56.05a2.27,2.27,0,0,1-2.27,2.26h-55a2.27,2.27,0,0,1-2.26-2.26V2.27A2.27,2.27,0,0,1,131.91,0Z"/><path class="c" d="M133,3.78c2.08-.1,27.34-1,41.84,13.29,0,0-11.51-8.65-37.47-4.81A40.28,40.28,0,0,0,133,3.78Z"/><path class="c" d="M181.53,26.56c-7.85-8.87-33.25-4.53-41.08-2.35a64.39,64.39,0,0,0-1.93-8.45c5.66-.86,38-5.07,43,10.8Z"/><path class="c" d="M141,28.21c6.16-1.7,41-10.52,44.46,6.1-11-7.37-37.18.88-44.07,3.44.06-2.1,0-4.33-.15-6.73-.06-1-.15-1.89-.24-2.81Z"/><path class="c" d="M141,42.37c14.85-6.16,61.08-17.75,40.83,7.93,4.37-8.11,1.86-9.16-4.07-8.84-11.34.62-34.71,10.56-40.46,13.38A34.57,34.57,0,0,0,141,42.37Z"/></svg>